# xmcd
#
# Track frame offsets:
#	150
#	15612
#	30132
#	55480
#	71282
#	88190
#	103890
#	119215
#	137357
#	151852
#	173820
#	186655
#	201752
#	216357
#
# Disc length: 3098 seconds
#
# Revision: 1
# Processed by: cddbd v1.5.2PL0 Copyright (c) Steve Scherf et al.
# Submitted via: audiograbber 1.83.01
#
DISCID=c70c180e
DTITLE=Vanessa Philipp - Antaudun
DYEAR=1998
DGENRE=Pop
TTITLE0=Prahan Kev‰t
TTITLE1=Parhaimman Ilon, Kauneimman Surun
TTITLE2=Prinssi
TTITLE3=Tunteen Siemen
TTITLE4=Kaunis On Hetki Rakkauden
TTITLE5=Kev‰inen Pariisi
TTITLE6=T‰‰ll‰ Yksin‰in
TTITLE7=Anna Mulle Siivet Selk‰‰n
TTITLE8=Haave
TTITLE9=Voit Luottaa Yst‰v‰‰n
TTITLE10=Jos Kanssani L‰hdet
TTITLE11=Budapest
TTITLE12=Antaudun
TTITLE13=Tv· L·ska Smutek Zah·nÌ
EXTD=TR.
EXTT0=
EXTT1=
EXTT2=
EXTT3=
EXTT4=
EXTT5=
EXTT6=
EXTT7=
EXTT8=
EXTT9=
EXTT10=
EXTT11=
EXTT12=
EXTT13=
PLAYORDER=
